<svg fill="none" height="144" viewBox="0 0 144 144" width="144" xmlns="http://www.w3.org/2000/svg"><path d="m123 72c.06-1.5.108-12.072-9-14.646v50.646h-12v-15l-11.952-11.862-30.048 14.91v11.952h-12v-12l-12-12-6 12s0 0-6 0c-3.468 0-6-6-6-6s-9-18-9-30c0-6.624 5.376-12 12-12h10.104c2.478-6.978 9.072-12 16.896-12 .984 0 1.932.138 2.874.288l63.126 11.856c14.964 2.436 18 16.194 17.994 24.09l.006 5.766h-9z" fill="#5d4037"/><path d="m30 69v-9c3.534 0 6-2.466 6-6v-6h9v6c0 8.55-6.45 15-15 15z" fill="#fff" opacity=".4"/><path d="m132 72v6h-9v-6zm-81.126-35.712c-.942-.15-1.89-.288-2.874-.288-7.824 0-14.418 5.022-16.896 12h-10.104c-6.624 0-12 5.376-12 12h2.934c7.242 0 13.656 3.264 18.066 8.328v-8.328c3.534 0 6-2.466 6-6v-6h9v6c0 8.376-6.198 14.688-14.484 14.952 3.36 4.128 5.46 9.318 5.478 15.048h.006l12 12v12h12v-29.952s.126-12.942 8.424-22.644c3.72-4.35 15.594-12.888 15.594-12.888z" fill="#000" opacity=".3"/></svg>